<svg width="100%" height="100%" viewBox="0 0 12 12" fill="none" xmlns="http://www.w3.org/2000/svg">
<g clip-path="url(#clip0_643_2337)">
<path d="M5.68507 0.975616C3.09445 0.975616 0.986816 3.08325 0.986816 5.67387C0.986816 8.26449 3.09445 10.3721 5.68507 10.3721C8.27569 10.3721 10.3833 8.26449 10.3833 5.67387C10.3833 3.08325 8.27569 0.975616 5.68507 0.975616ZM4.74589 7.74721L3.33381 6.33817C3.15022 6.15498 3.14985 5.85767 3.33298 5.67402C3.51622 5.49026 3.81376 5.48992 3.99743 5.67326L4.74495 6.41949L6.90004 4.2644C7.08349 4.08095 7.38093 4.08095 7.56438 4.2644C7.74783 4.44785 7.74783 4.74528 7.56438 4.92873L4.74589 7.74721Z" fill="#2FAB73"/>
</g>
<defs>
<clipPath id="clip0_643_2337">
<rect width="11.2758" height="11.2758" fill="white" transform="translate(0.046875 0.0360107)"/>
</clipPath>
</defs>
</svg>
