<svg width="100%" height="100%" viewBox="0 0 12 12" fill="none" xmlns="http://www.w3.org/2000/svg">
<path d="M5.52633 8.32988C5.46466 8.33 5.40357 8.31795 5.34657 8.29441C5.28956 8.27086 5.23777 8.2363 5.19416 8.19269L3.20116 6.19922C3.15626 6.15591 3.12043 6.10409 3.09577 6.04679C3.07111 5.98949 3.0581 5.92785 3.05752 5.86546C3.05693 5.80308 3.06877 5.74121 3.09236 5.68345C3.11594 5.62569 3.15079 5.57321 3.19487 5.52907C3.23895 5.48493 3.29138 5.45 3.3491 5.42634C3.40683 5.40267 3.46868 5.39074 3.53107 5.39124C3.59345 5.39174 3.65511 5.40465 3.71245 5.42924C3.76979 5.45382 3.82165 5.48957 3.86503 5.53441L5.52586 7.19525L8.5163 4.20575C8.6044 4.11759 8.7239 4.06804 8.84853 4.06799C8.97317 4.06795 9.09271 4.11742 9.18087 4.20551C9.26903 4.29361 9.31858 4.41312 9.31862 4.53775C9.31867 4.66238 9.2692 4.78192 9.1811 4.87008L5.8585 8.19269C5.81489 8.2363 5.76309 8.27086 5.70609 8.29441C5.64909 8.31795 5.588 8.33 5.52633 8.32988Z" fill="#2FAB73"/>
</svg>
