<svg width="100%" height="100%" viewBox="0 0 8 9" fill="none" xmlns="http://www.w3.org/2000/svg">
<g clip-path="url(#clip0_643_2435)">
<path d="M6.88032 3.09353L5.01643 2.82265L4.18322 1.13348C4.16047 1.08723 4.12303 1.04979 4.07678 1.02704C3.96079 0.969776 3.81984 1.01749 3.76185 1.13348L2.92864 2.82265L1.06476 3.09353C1.01337 3.10088 0.966386 3.1251 0.930415 3.16181C0.886928 3.2065 0.862964 3.26664 0.86379 3.32899C0.864616 3.39135 0.890164 3.45083 0.934819 3.49435L2.28337 4.80913L1.96477 6.66568C1.95729 6.70887 1.96207 6.75328 1.97856 6.79389C1.99505 6.8345 2.02258 6.86968 2.05805 6.89543C2.09351 6.92119 2.13548 6.93649 2.1792 6.93961C2.22291 6.94273 2.26663 6.93353 2.30539 6.91307L3.97254 6.03655L5.63968 6.91307C5.6852 6.9373 5.73805 6.94537 5.78871 6.93656C5.91644 6.91454 6.00233 6.79341 5.98031 6.66568L5.66171 4.80913L7.01025 3.49435C7.04696 3.45838 7.07118 3.4114 7.07852 3.36001C7.09834 3.23155 7.00878 3.11262 6.88032 3.09353Z" fill="#FEA250"/>
</g>
<defs>
<clipPath id="clip0_643_2435">
<rect width="7.51721" height="7.51721" fill="white" transform="translate(0.214355 0.501465)"/>
</clipPath>
</defs>
</svg>
