<svg width="17" height="17" viewBox="0 0 17 17" fill="none" xmlns="http://www.w3.org/2000/svg">
<path d="M8.54957 0.319336C4.19029 0.319336 0.656494 3.85313 0.656494 8.21241C0.656494 12.5717 4.19029 16.1055 8.54957 16.1055C12.9088 16.1055 16.4426 12.5717 16.4426 8.21241C16.4426 3.85313 12.9088 0.319336 8.54957 0.319336ZM11.7602 6.78508C11.7635 6.8525 11.7643 6.91992 11.7643 6.98569C11.7643 9.04118 10.2014 11.4099 7.34176 11.4099C6.49679 11.4113 5.66939 11.1686 4.95904 10.7111C5.0799 10.7259 5.20405 10.7316 5.32985 10.7316C6.05832 10.7316 6.7284 10.4841 7.26037 10.0665C6.93619 10.0601 6.62207 9.95275 6.3618 9.75938C6.10152 9.56602 5.90806 9.29627 5.80837 8.98774C6.04118 9.03201 6.28101 9.02273 6.5097 8.96061C6.15784 8.88945 5.84142 8.6988 5.61409 8.42097C5.38676 8.14314 5.26252 7.79524 5.26243 7.43626V7.41735C5.47209 7.53328 5.71217 7.60398 5.96705 7.61221C5.63719 7.39262 5.40367 7.05531 5.31427 6.66926C5.22486 6.28321 5.28632 5.87758 5.48607 5.53534C5.87657 6.0155 6.36356 6.4083 6.91551 6.68831C7.46746 6.96832 8.07205 7.1293 8.69016 7.16082C8.61158 6.82726 8.6454 6.47709 8.78637 6.16474C8.92733 5.85238 9.16755 5.59535 9.46966 5.43361C9.77178 5.27186 10.1189 5.21446 10.457 5.27032C10.7951 5.32619 11.1052 5.4922 11.3393 5.74253C11.6872 5.6737 12.0209 5.54607 12.3259 5.36515C12.2099 5.72538 11.9672 6.03127 11.6427 6.22598C11.9509 6.18886 12.2518 6.10601 12.5356 5.98015C12.3271 6.2925 12.0646 6.56509 11.7602 6.78508V6.78508Z" fill="white"/>
</svg>
